<svg width="60" height="60" viewBox="0 0 60 60" fill="none" xmlns="http://www.w3.org/2000/svg">
<circle r="4.1939" transform="matrix(-1 0 0 1 10.7646 15.7964)" fill="current"/>
<circle r="4.1939" transform="matrix(-1 0 0 1 10.7646 15.7964)" fill="black"/>
<path d="M10.0654 15.167L17.894 22.9956" stroke="current" stroke-width="2.09695"/>
<path d="M10.0654 15.167L17.894 22.9956" stroke="black" stroke-opacity="0.8" stroke-width="2.09695"/>
<circle cx="45.0147" cy="15.7964" r="4.1939" fill="current"/>
<circle cx="45.0147" cy="15.7964" r="4.1939" fill="black"/>
<path d="M45.7837 15.167L37.9551 22.9956" stroke="current" stroke-width="2.09695"/>
<path d="M45.7837 15.167L37.9551 22.9956" stroke="black" stroke-opacity="0.8" stroke-width="2.09695"/>
<path fill-rule="evenodd" clip-rule="evenodd" d="M11.9547 40.8225C9.69432 39.7465 8.37881 37.33 8.81947 34.8656C10.7108 24.2886 18.5929 16.3555 28.0292 16.3555C37.4883 16.3555 45.3857 24.327 47.2525 34.9425C47.6866 37.4114 46.3604 39.8267 44.0923 40.894C39.239 43.1779 33.8181 44.4546 28.0991 44.4546C22.3205 44.4546 16.8464 43.1513 11.9547 40.8225Z" fill="#FFDF6F"/>
<path d="M9.85157 35.0502C11.6791 24.8299 19.2335 17.4039 28.0292 17.4039V15.307C17.9523 15.307 9.74249 23.7472 7.78736 34.6811L9.85157 35.0502ZM28.0292 17.4039C36.846 17.4039 44.4159 24.8662 46.2198 35.1241L48.2851 34.7609C46.3554 23.7879 38.1305 15.307 28.0292 15.307V17.4039ZM43.6459 39.9454C38.9293 42.1649 33.6606 43.4061 28.0991 43.4061V45.5031C33.9757 45.5031 39.5487 44.191 44.5388 41.8427L43.6459 39.9454ZM28.0991 43.4061C22.4797 43.4061 17.1593 42.139 12.4054 39.8758L11.504 41.7692C16.5336 44.1636 22.1613 45.5031 28.0991 45.5031V43.4061ZM46.2198 35.1241C46.5679 37.1035 45.5081 39.069 43.6459 39.9454L44.5388 41.8427C47.2128 40.5844 48.8053 37.7192 48.2851 34.7609L46.2198 35.1241ZM7.78736 34.6811C7.25933 37.6341 8.83921 40.5006 11.504 41.7692L12.4054 39.8758C10.5494 38.9923 9.49829 37.0259 9.85157 35.0502L7.78736 34.6811Z" fill="current"/>
<path d="M9.85157 35.0502C11.6791 24.8299 19.2335 17.4039 28.0292 17.4039V15.307C17.9523 15.307 9.74249 23.7472 7.78736 34.6811L9.85157 35.0502ZM28.0292 17.4039C36.846 17.4039 44.4159 24.8662 46.2198 35.1241L48.2851 34.7609C46.3554 23.7879 38.1305 15.307 28.0292 15.307V17.4039ZM43.6459 39.9454C38.9293 42.1649 33.6606 43.4061 28.0991 43.4061V45.5031C33.9757 45.5031 39.5487 44.191 44.5388 41.8427L43.6459 39.9454ZM28.0991 43.4061C22.4797 43.4061 17.1593 42.139 12.4054 39.8758L11.504 41.7692C16.5336 44.1636 22.1613 45.5031 28.0991 45.5031V43.4061ZM46.2198 35.1241C46.5679 37.1035 45.5081 39.069 43.6459 39.9454L44.5388 41.8427C47.2128 40.5844 48.8053 37.7192 48.2851 34.7609L46.2198 35.1241ZM7.78736 34.6811C7.25933 37.6341 8.83921 40.5006 11.504 41.7692L12.4054 39.8758C10.5494 38.9923 9.49829 37.0259 9.85157 35.0502L7.78736 34.6811Z" fill="black"/>
<path fill-rule="evenodd" clip-rule="evenodd" d="M15.9879 38.1929C14.1684 37.4519 13.0891 35.516 13.7195 33.6553C15.6638 27.9171 21.3355 23.7646 28.0293 23.7646C34.7231 23.7646 40.3947 27.9171 42.339 33.6553C42.9695 35.516 41.8902 37.4518 40.0707 38.1929C36.3546 39.7064 32.2893 40.5403 28.0292 40.5403C23.7692 40.5403 19.704 39.7064 15.9879 38.1929Z" fill="current"/>
<path fill-rule="evenodd" clip-rule="evenodd" d="M15.9879 38.1929C14.1684 37.4519 13.0891 35.516 13.7195 33.6553C15.6638 27.9171 21.3355 23.7646 28.0293 23.7646C34.7231 23.7646 40.3947 27.9171 42.339 33.6553C42.9695 35.516 41.8902 37.4518 40.0707 38.1929C36.3546 39.7064 32.2893 40.5403 28.0292 40.5403C23.7692 40.5403 19.704 39.7064 15.9879 38.1929Z" fill="black"/>
<ellipse cx="32.8523" cy="32.7119" rx="3.49492" ry="2.79593" fill="current"/>
<ellipse cx="32.8523" cy="32.7119" rx="3.49492" ry="2.79593" fill="white" fill-opacity="0.97"/>
<ellipse cx="22.847" cy="32.7139" rx="3.49492" ry="2.79593" fill="current"/>
<ellipse cx="22.847" cy="32.7139" rx="3.49492" ry="2.79593" fill="white" fill-opacity="0.97"/>
<!-- <path d="M72.0419 29.8637H67.175L69.5535 23.094L72.0419 29.8637ZM66.3333 15.1168L57.0021 40H63.6255L65.3453 35.0965H73.9447L75.7377 40.3659L82.2879 39.7073L72.9933 15.1168H66.3333ZM90.7752 40V14.1653L84.1153 14.5679V40H90.7752ZM97.7922 40L101.086 36.67V14.1653L94.4256 14.5679V40H97.7922ZM98.9266 29.1685C99.634 28.4366 100.293 27.8511 100.903 27.412C101.512 26.9729 102.11 26.7533 102.696 26.7533C103.403 26.7533 103.989 26.9119 104.452 27.229C104.94 27.5462 105.306 28.0219 105.55 28.6562C105.818 29.2661 105.952 30.0223 105.952 30.9249C105.952 31.8276 105.818 32.6082 105.55 33.2669C105.282 33.9256 104.928 34.4257 104.489 34.7672C104.05 35.1087 103.549 35.2795 102.988 35.2795C102.354 35.2795 101.695 35.1087 101.012 34.7672C100.329 34.4013 99.634 33.889 98.9266 33.2303L97.0603 37.1457C97.7434 37.9264 98.4265 38.5607 99.1095 39.0486C99.817 39.5121 100.524 39.8536 101.232 40.0732C101.964 40.2927 102.696 40.4025 103.427 40.4025C105.306 40.4025 106.94 40.0488 108.331 39.3413C109.746 38.6339 110.844 37.5727 111.624 36.1577C112.429 34.7428 112.832 32.9863 112.832 30.8883C112.832 28.7659 112.429 27.0217 111.624 25.6555C110.844 24.2894 109.77 23.277 108.404 22.6183C107.038 21.9596 105.477 21.6303 103.72 21.6303C102.818 21.6303 101.939 21.7889 101.086 22.106C100.232 22.4232 99.4511 22.8379 98.7436 23.3502C98.0605 23.8381 97.4994 24.3504 97.0603 24.8871L98.9266 29.1685ZM119.419 40.0732C119.297 40.4147 118.98 40.7563 118.468 41.0978C117.955 41.4393 117.37 41.7565 116.711 42.0492C116.077 42.342 115.467 42.6103 114.881 42.8543L117.114 48.0139C118.285 47.7455 119.419 47.3308 120.517 46.7697C121.615 46.2086 122.578 45.5255 123.408 44.7205C124.237 43.9155 124.835 43.0372 125.201 42.0858L132.995 22.2524H126.372L122.968 32.2789L119.346 21.5937L113.198 23.3502L119.565 39.6707L119.419 40.0732Z" fill="current"/>
<path d="M72.0419 29.8637H67.175L69.5535 23.094L72.0419 29.8637ZM66.3333 15.1168L57.0021 40H63.6255L65.3453 35.0965H73.9447L75.7377 40.3659L82.2879 39.7073L72.9933 15.1168H66.3333ZM90.7752 40V14.1653L84.1153 14.5679V40H90.7752ZM97.7922 40L101.086 36.67V14.1653L94.4256 14.5679V40H97.7922ZM98.9266 29.1685C99.634 28.4366 100.293 27.8511 100.903 27.412C101.512 26.9729 102.11 26.7533 102.696 26.7533C103.403 26.7533 103.989 26.9119 104.452 27.229C104.94 27.5462 105.306 28.0219 105.55 28.6562C105.818 29.2661 105.952 30.0223 105.952 30.9249C105.952 31.8276 105.818 32.6082 105.55 33.2669C105.282 33.9256 104.928 34.4257 104.489 34.7672C104.05 35.1087 103.549 35.2795 102.988 35.2795C102.354 35.2795 101.695 35.1087 101.012 34.7672C100.329 34.4013 99.634 33.889 98.9266 33.2303L97.0603 37.1457C97.7434 37.9264 98.4265 38.5607 99.1095 39.0486C99.817 39.5121 100.524 39.8536 101.232 40.0732C101.964 40.2927 102.696 40.4025 103.427 40.4025C105.306 40.4025 106.94 40.0488 108.331 39.3413C109.746 38.6339 110.844 37.5727 111.624 36.1577C112.429 34.7428 112.832 32.9863 112.832 30.8883C112.832 28.7659 112.429 27.0217 111.624 25.6555C110.844 24.2894 109.77 23.277 108.404 22.6183C107.038 21.9596 105.477 21.6303 103.72 21.6303C102.818 21.6303 101.939 21.7889 101.086 22.106C100.232 22.4232 99.4511 22.8379 98.7436 23.3502C98.0605 23.8381 97.4994 24.3504 97.0603 24.8871L98.9266 29.1685ZM119.419 40.0732C119.297 40.4147 118.98 40.7563 118.468 41.0978C117.955 41.4393 117.37 41.7565 116.711 42.0492C116.077 42.342 115.467 42.6103 114.881 42.8543L117.114 48.0139C118.285 47.7455 119.419 47.3308 120.517 46.7697C121.615 46.2086 122.578 45.5255 123.408 44.7205C124.237 43.9155 124.835 43.0372 125.201 42.0858L132.995 22.2524H126.372L122.968 32.2789L119.346 21.5937L113.198 23.3502L119.565 39.6707L119.419 40.0732Z" fill="black"/> -->
</svg>
